<?xml version="1.0" standalone="no"?>
<!DOCTYPE svg PUBLIC "-//W3C//DTD SVG 20010904//EN"
 "http://www.w3.org/TR/2001/REC-SVG-20010904/DTD/svg10.dtd">
<svg version="1.0" xmlns="http://www.w3.org/2000/svg"
 width="512.000000pt" height="512.000000pt" viewBox="0 0 512.000000 512.000000"
 preserveAspectRatio="xMidYMid meet">

<g transform="translate(0.000000,512.000000) scale(0.100000,-0.100000)"
fill="#000000" stroke="none">
<path d="M1871 5091 c-17 -16 -35 -41 -41 -55 -6 -16 -10 -131 -10 -276 l0
-250 -27 -6 c-99 -21 -219 -61 -287 -95 -277 -139 -477 -386 -559 -694 -21
-78 -21 -99 -24 -912 l-4 -832 -252 -3 c-370 -4 -351 19 -344 -437 4 -272 7
-329 25 -408 44 -192 114 -355 223 -513 225 -328 578 -540 979 -590 114 -14
1518 -14 1648 1 780 84 1412 655 1578 1424 34 160 46 397 42 885 -3 404 -4
427 -23 459 -11 19 -33 43 -48 55 -27 20 -42 21 -278 24 l-249 3 0 329 c0 181
-5 363 -11 406 -48 350 -261 646 -576 803 -70 35 -187 74 -285 95 l-28 6 0
247 c0 230 -1 250 -21 290 -37 77 1 73 -737 73 l-660 0 -31 -29z m1149 -416
l0 -155 -450 0 -450 0 0 155 0 155 450 0 450 0 0 -155z m335 -478 c33 -9 103
-38 155 -64 80 -39 109 -60 185 -137 98 -99 152 -186 196 -321 22 -67 23 -87
27 -436 l3 -366 -178 -6 c-253 -9 -433 -45 -646 -131 -520 -212 -932 -680
-1065 -1212 -14 -60 -28 -111 -30 -113 -1 -3 -17 13 -34 35 -64 81 -220 224
-309 284 -120 80 -207 123 -332 165 l-102 34 -3 803 c-3 873 -2 884 54 1022
73 181 243 345 430 416 128 48 144 49 889 46 630 -1 706 -3 760 -19z m1162
-2079 c-4 -349 -8 -474 -21 -543 -56 -323 -200 -601 -431 -830 -205 -203 -462
-340 -760 -406 -90 -19 -136 -22 -460 -26 l-360 -4 110 113 c60 62 372 376
692 698 320 322 587 598 592 613 47 125 -85 251 -200 191 -17 -8 -341 -327
-720 -707 l-690 -692 5 365 c4 389 10 445 66 624 151 482 542 859 1037 1001
161 46 253 53 717 54 l428 1 -5 -452z m-3377 -478 c311 -82 566 -285 710 -566
72 -141 120 -331 120 -478 l0 -71 -302 302 c-320 318 -327 323 -403 309 -40
-8 -80 -38 -100 -76 -18 -34 -20 -102 -4 -133 6 -12 144 -156 307 -319 l297
-298 -62 0 c-200 0 -421 69 -600 187 -83 54 -223 192 -281 276 -149 217 -202
406 -202 726 l0 173 218 -5 c182 -4 231 -8 302 -27z"/>
</g>
</svg>
