<?xml version="1.0" standalone="no"?>
<!DOCTYPE svg PUBLIC "-//W3C//DTD SVG 20010904//EN"
 "http://www.w3.org/TR/2001/REC-SVG-20010904/DTD/svg10.dtd">
<svg version="1.0" xmlns="http://www.w3.org/2000/svg"
 width="512.000000pt" height="512.000000pt" viewBox="0 0 512.000000 512.000000"
 preserveAspectRatio="xMidYMid meet">

<g transform="translate(0.000000,512.000000) scale(0.100000,-0.100000)"
fill="#000000" stroke="none">
<path d="M922 5075 c-60 -18 -118 -61 -153 -111 -49 -71 -59 -134 -59 -359 l0
-201 -336 -395 c-186 -217 -345 -407 -355 -424 -18 -29 -19 -95 -19 -1752 0
-1217 3 -1729 11 -1746 6 -13 23 -31 39 -40 26 -16 205 -17 2405 -17 2588 0
2416 -4 2443 55 10 21 222 2315 222 2398 0 10 -15 34 -34 53 l-34 34 -556 0
-556 0 0 493 0 494 -30 44 c-16 24 -153 212 -304 418 l-274 375 -4 230 c-5
273 -12 301 -105 386 -93 85 -15 80 -1207 79 -853 0 -1059 -3 -1094 -14z
m2142 -195 c54 -20 61 -48 61 -235 l0 -170 -1108 -3 -1108 -2 3 181 3 181 33
29 32 29 1030 0 c629 0 1038 -4 1054 -10z m-46 -618 c-1 -5 -104 -147 -228
-315 l-225 -307 -1118 0 c-892 0 -1117 3 -1111 13 5 6 125 148 267 315 l258
302 1080 0 c595 0 1079 -4 1077 -8z m416 -345 c108 -147 196 -272 196 -277 0
-6 -154 -10 -406 -10 -364 0 -406 2 -400 16 12 32 401 553 407 546 4 -4 95
-128 203 -275z m-924 -1219 c0 -714 -1 -734 -20 -766 -57 -93 -197 -97 -257
-5 -16 24 -19 61 -23 363 l-5 335 -27 57 c-35 75 -95 138 -165 174 -52 26 -68
29 -153 29 -76 0 -104 -4 -142 -22 -66 -30 -143 -105 -175 -172 l-28 -56 -5
-272 c-5 -254 -6 -273 -26 -299 -51 -69 -114 -88 -187 -56 -71 32 -87 65 -87
187 -1 206 -28 293 -119 378 -65 61 -123 87 -209 94 -126 10 -241 -43 -313
-147 -51 -73 -69 -147 -69 -290 0 -97 -3 -120 -20 -148 -61 -100 -207 -96
-261 8 -18 33 -19 71 -19 687 l0 653 1155 0 1155 0 0 -732z m1230 302 l0 -430
-328 0 c-287 0 -330 -2 -351 -16 -54 -38 -55 -11 25 -904 40 -454 74 -835 74
-847 l0 -23 -225 0 -225 0 0 1325 0 1325 515 0 515 0 0 -430z m-1810 -330 c73
-37 74 -43 80 -420 6 -383 6 -384 97 -481 98 -105 228 -137 381 -93 l22 6 0
-451 0 -451 -362 0 c-397 0 -401 -1 -430 -58 -20 -41 -10 -87 27 -120 26 -22
27 -22 396 -22 l369 0 0 -175 0 -175 -1155 0 -1155 0 0 175 0 175 365 0 c251
0 372 4 389 11 33 15 59 71 51 109 -4 16 -20 41 -37 55 l-30 25 -369 0 -369 0
0 529 0 530 46 -16 c69 -23 194 -14 259 19 68 35 133 101 164 168 23 49 26 71
31 207 5 132 8 155 26 179 70 94 190 96 251 5 21 -30 23 -46 23 -146 0 -128
13 -212 42 -269 33 -64 103 -131 171 -162 53 -25 74 -29 147 -29 72 1 94 5
142 29 73 35 139 100 175 174 l28 57 5 270 c5 259 6 271 27 301 44 62 123 80
193 44z m2980 -304 c0 -16 -41 -469 -45 -502 l-6 -41 -89 5 c-110 6 -188 -8
-300 -56 -78 -34 -93 -37 -180 -37 -87 0 -103 3 -185 37 -121 50 -180 61 -294
55 -72 -3 -114 -11 -166 -32 -169 -66 -176 -67 -263 -63 -45 3 -87 9 -93 15
-9 9 -58 498 -59 586 l0 37 840 0 c462 0 840 -2 840 -4z m-890 -775 c98 -42
179 -61 267 -61 94 0 160 15 258 58 74 34 87 36 182 37 56 0 105 -3 109 -7 6
-7 -95 -1217 -113 -1345 l-5 -43 -654 0 -654 0 0 25 c0 13 -25 302 -55 641
-30 340 -55 622 -55 628 0 7 41 11 118 12 104 0 125 3 187 28 169 67 166 67
255 63 69 -3 99 -10 160 -36z m-836 -1043 c6 -40 26 -268 26 -297 0 -21 -3
-21 -250 -21 l-250 0 0 175 0 175 235 0 234 0 5 -32z"/>
<path d="M1308 764 c-57 -31 -66 -107 -19 -155 40 -40 89 -40 133 0 27 24 33
36 33 71 0 35 -6 47 -33 71 -36 32 -72 36 -114 13z"/>
</g>
</svg>
