<?xml version="1.0" standalone="no"?>
<!DOCTYPE svg PUBLIC "-//W3C//DTD SVG 20010904//EN"
 "http://www.w3.org/TR/2001/REC-SVG-20010904/DTD/svg10.dtd">
<svg version="1.0" xmlns="http://www.w3.org/2000/svg"
 width="40pt" height="40pt" viewBox="0 0 512.000000 512.000000"
 preserveAspectRatio="xMidYMid meet">

<g transform="translate(0.000000,512.000000) scale(0.100000,-0.100000)"
fill="#000000" stroke="none">
<path d="M1847 5109 c-136 -33 -246 -144 -283 -288 -29 -115 -3 -161 93 -161
l53 0 0 -260 0 -260 -97 -195 -97 -194 -136 133 c-116 114 -143 136 -195 155
-77 30 -157 25 -243 -14 -119 -53 -179 -154 -170 -284 8 -114 30 -146 228
-346 l178 -180 -32 -37 c-90 -103 -68 -270 46 -341 l48 -30 0 -1178 0 -1177
-32 -20 c-47 -29 -84 -71 -102 -114 -21 -50 -20 -134 3 -184 23 -49 88 -107
140 -122 55 -17 2567 -17 2622 0 118 35 183 165 148 292 -11 42 -97 136 -123
136 -13 0 -16 46 -18 349 -3 327 -4 350 -22 370 -25 27 -79 28 -106 1 -19 -19
-20 -33 -20 -360 l0 -340 -1170 0 -1170 0 0 1165 0 1165 1170 0 1170 0 0 -694
0 -695 26 -20 c15 -12 33 -21 40 -21 26 0 62 23 73 47 8 17 11 229 11 713 l0
689 23 12 c48 24 98 84 112 133 26 87 15 149 -39 218 l-33 43 182 185 c162
165 185 192 205 245 55 148 -15 325 -153 386 -40 18 -70 23 -132 23 -120 -1
-154 -20 -312 -176 l-132 -131 -95 192 -96 191 0 265 0 265 51 0 c61 0 83 10
98 48 16 37 -8 157 -43 216 -35 59 -117 133 -184 164 l-57 27 -695 2 c-385 1
-712 -3 -733 -8z m1441 -173 c34 -19 63 -46 83 -75 l30 -46 -279 -3 -279 -2
-23 -25 c-18 -19 -21 -31 -16 -59 12 -62 26 -66 253 -66 l203 0 0 -235 0 -235
-700 0 -700 0 0 235 0 235 359 0 c327 0 361 2 380 18 32 26 37 72 11 105 l-21
27 -275 0 c-151 0 -274 2 -274 5 0 15 51 104 74 128 l26 28 547 -3 548 -3 53
-29z m197 -1286 l195 -390 -634 0 c-396 0 -645 -4 -661 -10 -33 -13 -60 -72
-45 -100 28 -52 -1 -50 771 -50 668 0 718 -1 738 -17 11 -10 24 -32 27 -50 5
-26 1 -37 -19 -57 l-26 -26 -1124 0 c-1017 0 -1125 2 -1131 16 -3 9 -6 35 -6
59 0 80 -19 75 275 75 250 0 264 1 289 21 17 13 26 30 26 49 0 88 -9 90 -395
90 l-325 0 195 390 195 390 730 0 730 0 195 -390z m-2324 231 c24 -16 98 -83
164 -150 l120 -121 -75 -150 -75 -150 -172 172 c-95 95 -180 187 -188 204 -69
145 90 283 226 195z m2961 7 c72 -41 98 -131 59 -206 -11 -20 -96 -113 -189
-206 l-170 -169 -71 141 c-39 78 -71 148 -71 155 0 20 262 275 300 291 50 22
96 19 142 -6z m-266 -3611 c30 -35 30 -59 0 -94 l-24 -28 -1169 -3 c-1091 -2
-1169 -1 -1180 15 -16 20 -17 97 -3 124 11 19 30 19 1181 17 l1171 -3 24 -28z"/>
<path d="M2164 2456 c-58 -27 -119 -94 -136 -148 -8 -27 -8 -71 -1 -160 6 -68
8 -126 6 -130 -2 -5 -67 -8 -144 -8 -128 0 -141 -2 -160 -21 -18 -18 -21 -30
-17 -84 10 -160 161 -319 323 -342 23 -3 47 -8 53 -12 5 -3 28 -133 50 -288
23 -155 47 -297 55 -315 20 -49 72 -104 126 -136 44 -26 52 -27 218 -30 198
-4 243 5 312 64 74 64 85 99 131 415 23 156 43 285 45 287 2 2 33 10 71 18
166 34 296 174 310 334 5 57 3 68 -15 88 -21 21 -29 22 -168 22 l-146 0 6 48
c4 26 9 88 13 139 6 81 4 96 -15 137 -39 80 -136 146 -216 146 -45 0 -118 -30
-154 -63 -41 -38 -71 -115 -71 -184 l0 -63 -80 0 -80 0 0 48 c0 123 -62 217
-161 246 -71 21 -95 20 -155 -8z m686 -454 c19 -9 43 -32 54 -51 l19 -34 -43
-301 c-23 -165 -46 -304 -49 -308 -4 -4 -27 2 -51 15 -41 20 -59 22 -220 22
-161 0 -179 -2 -224 -23 -27 -12 -50 -21 -51 -20 -1 2 -21 137 -45 300 -42
296 -42 297 -24 335 11 21 34 48 53 60 33 22 41 23 290 23 224 0 260 -2 291
-18z m-792 -214 c6 -40 9 -74 7 -76 -9 -10 -68 12 -105 39 -36 26 -80 82 -80
102 0 4 38 7 84 7 l84 0 10 -72z m1182 63 c0 -23 -69 -97 -110 -117 -66 -34
-84 -32 -77 9 3 17 9 51 12 75 l7 42 84 0 c46 0 84 -4 84 -9z m-511 -675 c40
-21 64 -63 64 -112 0 -50 -21 -87 -66 -115 -29 -18 -47 -19 -180 -17 l-149 3
-33 37 c-42 45 -52 92 -31 141 27 66 60 77 224 77 105 0 150 -4 171 -14z"/>
<path d="M2351 1774 c-34 -44 -26 -86 21 -110 75 -39 146 57 85 114 -33 31
-80 29 -106 -4z"/>
<path d="M2661 1774 c-24 -30 -26 -43 -10 -78 23 -51 103 -55 128 -7 42 78
-64 154 -118 85z"/>
</g>
</svg>
